HIERARCHY
ROOT Pelvis
{
	OFFSET 0.32 0 0
	CHANNELS 6 Xposition Yposition Zposition Zrotation Xrotation Yrotation
	JOINT SpineShoulder
	{
		OFFSET 0 6.740009 0
		CHANNELS 3 Zrotation Xrotation Yrotation
		JOINT Neck
		{
			OFFSET 0 2.640004 0
			CHANNELS 3 Zrotation Xrotation Yrotation
			End Site
			{
				OFFSET 0 4.719998 0
			}
		}
		JOINT ShoulderLeft
		{
			OFFSET 3.340001 0.6799955 0
			CHANNELS 3 Zrotation Xrotation Yrotation
			JOINT ElbowLeft
			{
				OFFSET 5.307964 0 0
				CHANNELS 3 Zrotation Xrotation Yrotation
				End Site
				{
					OFFSET 4.786495 0 0
				}
			}
		}
		JOINT ShoulderRight
		{
			OFFSET -3.300001 0.6799955 0
			CHANNELS 3 Zrotation Xrotation Yrotation
			JOINT ElbowRight
			{
				OFFSET -5.307964 0 0
				CHANNELS 3 Zrotation Xrotation Yrotation
				End Site
				{
					OFFSET -4.786495 0 0
				}
			}
		}
	}
	JOINT HipLeft
	{
		OFFSET 2.560001 -1.599997 0
		CHANNELS 3 Zrotation Xrotation Yrotation
		JOINT KneeLeft
		{
			OFFSET 0 -8.508625 0
			CHANNELS 3 Zrotation Xrotation Yrotation
			End Site
			{
				OFFSET 0 -7.880188 0
			}
		}
	}
	JOINT HipRight
	{
		OFFSET -2.560001 -1.599997 0
		CHANNELS 3 Zrotation Xrotation Yrotation
		JOINT KneeRight
		{
			OFFSET 0 -8.508625 0
			CHANNELS 3 Zrotation Xrotation Yrotation
			End Site
			{
				OFFSET 0 -7.880188 0
			}
		}
	}
}
MOTION
Frames: 16
Frame Time: 0.03333334
0 0 0 -12.93418 11.34425 90.92564 -355.5896 10.96436 357.4966 -3.567061 357.1842 359.5208 -256.7133 53.85838 191.3238 -140.9659 327.6911 173.2877 -111.1434 357.0702 165.3544 -218.8774 24.23022 207.0896 -353.2943 343.4597 3.360476 -354.7709 14.81805 356.8184 -355.1714 345.2794 2.620011 -359.9593 10.2366 358.5658
0 0 0 -13.01496 10.85116 86.11398 -356.501 9.184442 0.1450704 -2.937647 355.5292 359.8267 -258.9818 55.13857 193.5168 -141.8883 324.0883 180.5262 -116.9746 349.4962 162.0681 -222.7762 31.48528 210.1704 -354.1479 345.7808 2.63661 -352.573 8.589314 358.2246 -353.0077 345.5498 2.950555 -359.276 10.33933 358.4333
0 0 0 -12.50726 12.38067 83.42348 -356.6896 8.630919 357.8242 -3.223886 357.3096 359.5872 -258.6989 64.88972 190.5842 -135.5516 313.4377 183.336 -114.6425 342.4503 162.4675 -228.8441 36.5802 219.2945 -355.4483 347.9546 2.151235 -352.4914 7.516426 358.609 -354.2638 346.3869 2.643436 -0.1243204 9.089363 358.7193
0 0 0 -11.89781 11.48181 84.92916 -357.0954 7.869482 358.4493 -2.117088 358.5451 359.7426 -258.1388 57.50299 190.0007 -145.511 321.0577 179.0424 -115.2777 344.5252 163.386 -227.636 31.68693 223.9458 -352.2992 347.6551 2.804433 -356.4793 7.727965 358.5612 -352.0199 346.6595 3.023599 -359.5469 11.1318 358.1967
0 0 0 -12.50616 11.53813 85.56412 -357.3251 7.856923 359.4467 -2.25543 358.219 359.7444 -252.7536 60.50613 188.2268 -140.2352 322.0458 182.892 -119.0974 345.9638 160.4556 -222.5826 32.38534 216.3006 -353.5246 346.6735 2.716109 -355.4243 7.613776 358.5709 -352.7126 346.213 2.977786 -358.3954 10.88223 358.1727
0 0 0 -11.11325 11.2647 87.05553 -357.2054 8.268293 358.4225 -2.5979 358.0514 359.7141 -254.759 57.07831 190.3691 -143.547 325.0114 181.6438 -120.4215 345.4669 163.4644 -220.5494 30.05591 216.5447 -353.2829 348.081 2.488293 -352.5795 7.727627 358.2944 -353.1358 348.6061 2.439764 -359.6898 8.893923 358.6284
0 0 0 -9.939654 11.73622 89.74056 -356.6517 6.868891 358.4606 -2.740122 1.88808 359.3851 -258.5477 49.27595 195.4068 -146.5157 331.7643 187.0847 -114.6033 353.0294 163.9721 -219.2942 28.37112 209.0308 -353.7457 347.8835 2.443289 -352.8617 9.961023 357.6682 -354.5697 350.5503 1.886538 -358.4065 8.256295 358.6606
0 0 0 -9.750054 11.10148 99.88006 -355.8861 7.487424 358.0732 -2.339821 2.098779 359.418 -254.9773 30.69112 194.3313 -147.8349 350.5151 173.074 -112.329 11.30062 169.6631 -212.8845 10.41498 200.1988 -354.8028 343.3875 2.936132 -352.4488 14.9593 356.1164 -353.5677 349.0017 2.269681 -357.5173 8.190591 358.3905
0 0 0 -8.610296 12.36026 100.8668 -356.1174 7.239939 357.4089 -3.624025 2.534605 359.2497 -253.7318 30.33248 191.8737 -147.8805 351.6249 172.1681 -109.2896 14.40451 169.2202 -214.5251 11.32938 198.3748 -354.8628 349.3552 2.041495 -355.9362 6.6363 358.5023 -353.0487 348.1238 2.53824 -1.921103 12.67343 358.0468
0 0 0 -7.985784 12.6388 96.69781 -356.3888 7.00943 356.9599 -3.291719 0.6330318 359.5135 -254.6154 38.45795 191.0942 -147.8741 342.8867 176.7819 -111.4805 4.753571 168.5372 -211.9403 16.44641 201.8605 -355.7567 351.8864 1.501225 -354.777 5.112377 358.8896 -354.3561 348.8679 2.188656 -359.9666 12.47388 357.9268
0 0 0 -8.51479 10.64931 101.4541 -356.0876 6.361802 357.3513 -2.243366 0.7311696 359.653 -253.5303 26.25362 191.1437 -150.0473 354.0478 169.5333 -110.6488 12.93958 166.705 -213.9755 12.66653 197.9377 -355.3475 350.4915 1.651239 -354.9523 5.190203 358.8584 -355.5442 342.23 2.823917 -357.7391 19.49186 356.6513
0 0 0 -7.188515 9.86894 116.6357 -355.8155 4.021186 356.0296 -1.185248 3.859903 359.4302 -249.6857 358.4488 196.0623 -146.0429 22.53086 158.6715 -106.7071 40.37588 171.5312 -214.5918 351.5683 189.8946 -350.1975 342.439 3.578643 -2.902189 12.83477 358.3553 -352.6752 339.4197 3.664616 -358.67 26.05635 355.2907
0 0 0 -7.227899 9.177657 117.0543 -355.7888 3.435672 356.3858 -2.353605 0.9093134 359.7596 -247.8642 357.8543 193.0424 -141.3496 21.55322 150.7619 -105.2194 41.23291 167.3394 -214.9636 354.1369 182.6617 -349.872 342.5756 3.538789 -5.953701 13.58411 359.0295 -353.4235 336.504 3.89255 -357.9348 30.55419 354.5854
0 0 0 -6.598929 9.82125 116.8466 -355.0552 4.628506 356.8438 -2.322177 0.8311278 359.7567 -248.6503 357.8136 195.2807 -142.6859 22.92122 155.0409 -104.8319 44.21742 171.1379 -209.5716 343.8677 189.9234 -357.1371 346.7679 1.735472 -357.7176 8.155081 358.5754 -357.9311 340.7415 2.372277 -355.0699 28.63699 354.7183
0 0 0 -4.379898 10.74183 122.7064 -358.6198 3.432404 358.6071 -359.9355 3.260107 359.6347 -246.1766 335.1571 193.6418 -134.0097 38.6383 134.2354 -103.3868 56.93034 170.1281 -213.8547 337.5725 175.5799 -358.0591 347.9774 1.378595 -358.1166 8.674644 358.6259 -359.9554 340.9448 1.932646 -347.1755 32.89294 350.9056
0 0 0 -3.255056 11.19274 127.8639 -358.3394 4.663731 358.3866 -359.6542 4.599055 359.4851 -240.7427 329.6494 194.4861 -120.1726 38.01655 121.4627 -90.73687 69.01128 157.856 -218.9986 336.1654 166.7251 -359.986 350.5326 0.9039562 -358.4566 12.69715 358.4568 -3.117619 340.8918 1.427544 -347.6043 37.895 351.1644
